<svg version="1.1" xmlns="http://www.w3.org/2000/svg" xmlns:xlink="http://www.w3.org/1999/xlink" width="484.4072265625" height="868"><defs/><g><text fill="#eeeeee" stroke="none" font-family="Arial" font-size="24px" font-style="normal" font-weight="normal" text-decoration="none" x="0" y="0">UNREGISTERED</text><text fill="#eeeeee" stroke="none" font-family="Arial" font-size="24px" font-style="normal" font-weight="normal" text-decoration="none" x="0" y="30">UNREGISTERED</text><text fill="#eeeeee" stroke="none" font-family="Arial" font-size="24px" font-style="normal" font-weight="normal" text-decoration="none" x="0" y="60">UNREGISTERED</text><text fill="#eeeeee" stroke="none" font-family="Arial" font-size="24px" font-style="normal" font-weight="normal" text-decoration="none" x="0" y="90">UNREGISTERED</text><text fill="#eeeeee" stroke="none" font-family="Arial" font-size="24px" font-style="normal" font-weight="normal" text-decoration="none" x="0" y="120">UNREGISTERED</text><text fill="#eeeeee" stroke="none" font-family="Arial" font-size="24px" font-style="normal" font-weight="normal" text-decoration="none" x="0" y="150">UNREGISTERED</text><text fill="#eeeeee" stroke="none" font-family="Arial" font-size="24px" font-style="normal" font-weight="normal" text-decoration="none" x="0" y="180">UNREGISTERED</text><text fill="#eeeeee" stroke="none" font-family="Arial" font-size="24px" font-style="normal" font-weight="normal" text-decoration="none" x="0" y="210">UNREGISTERED</text><text fill="#eeeeee" stroke="none" font-family="Arial" font-size="24px" font-style="normal" font-weight="normal" text-decoration="none" x="0" y="240">UNREGISTERED</text><text fill="#eeeeee" stroke="none" font-family="Arial" font-size="24px" font-style="normal" font-weight="normal" text-decoration="none" x="0" y="270">UNREGISTERED</text><text fill="#eeeeee" stroke="none" font-family="Arial" font-size="24px" font-style="normal" font-weight="normal" text-decoration="none" x="0" y="300">UNREGISTERED</text><text fill="#eeeeee" stroke="none" font-family="Arial" font-size="24px" font-style="normal" font-weight="normal" text-decoration="none" x="0" y="330">UNREGISTERED</text><text fill="#eeeeee" stroke="none" font-family="Arial" font-size="24px" font-style="normal" font-weight="normal" text-decoration="none" x="0" y="360">UNREGISTERED</text><text fill="#eeeeee" stroke="none" font-family="Arial" font-size="24px" font-style="normal" font-weight="normal" text-decoration="none" x="0" y="390">UNREGISTERED</text><text fill="#eeeeee" stroke="none" font-family="Arial" font-size="24px" font-style="normal" font-weight="normal" text-decoration="none" x="0" y="420">UNREGISTERED</text><text fill="#eeeeee" stroke="none" font-family="Arial" font-size="24px" font-style="normal" font-weight="normal" text-decoration="none" x="0" y="450">UNREGISTERED</text><text fill="#eeeeee" stroke="none" font-family="Arial" font-size="24px" font-style="normal" font-weight="normal" text-decoration="none" x="0" y="480">UNREGISTERED</text><text fill="#eeeeee" stroke="none" font-family="Arial" font-size="24px" font-style="normal" font-weight="normal" text-decoration="none" x="0" y="510">UNREGISTERED</text><text fill="#eeeeee" stroke="none" font-family="Arial" font-size="24px" font-style="normal" font-weight="normal" text-decoration="none" x="0" y="540">UNREGISTERED</text><text fill="#eeeeee" stroke="none" font-family="Arial" font-size="24px" font-style="normal" font-weight="normal" text-decoration="none" x="0" y="570">UNREGISTERED</text><text fill="#eeeeee" stroke="none" font-family="Arial" font-size="24px" font-style="normal" font-weight="normal" text-decoration="none" x="0" y="600">UNREGISTERED</text><text fill="#eeeeee" stroke="none" font-family="Arial" font-size="24px" font-style="normal" font-weight="normal" text-decoration="none" x="0" y="630">UNREGISTERED</text><text fill="#eeeeee" stroke="none" font-family="Arial" font-size="24px" font-style="normal" font-weight="normal" text-decoration="none" x="0" y="660">UNREGISTERED</text><text fill="#eeeeee" stroke="none" font-family="Arial" font-size="24px" font-style="normal" font-weight="normal" text-decoration="none" x="0" y="690">UNREGISTERED</text><text fill="#eeeeee" stroke="none" font-family="Arial" font-size="24px" font-style="normal" font-weight="normal" text-decoration="none" x="0" y="720">UNREGISTERED</text><text fill="#eeeeee" stroke="none" font-family="Arial" font-size="24px" font-style="normal" font-weight="normal" text-decoration="none" x="0" y="750">UNREGISTERED</text><text fill="#eeeeee" stroke="none" font-family="Arial" font-size="24px" font-style="normal" font-weight="normal" text-decoration="none" x="0" y="780">UNREGISTERED</text><text fill="#eeeeee" stroke="none" font-family="Arial" font-size="24px" font-style="normal" font-weight="normal" text-decoration="none" x="0" y="810">UNREGISTERED</text><text fill="#eeeeee" stroke="none" font-family="Arial" font-size="24px" font-style="normal" font-weight="normal" text-decoration="none" x="0" y="840">UNREGISTERED</text><text fill="#eeeeee" stroke="none" font-family="Arial" font-size="24px" font-style="normal" font-weight="normal" text-decoration="none" x="200" y="0">UNREGISTERED</text><text fill="#eeeeee" stroke="none" font-family="Arial" font-size="24px" font-style="normal" font-weight="normal" text-decoration="none" x="200" y="30">UNREGISTERED</text><text fill="#eeeeee" stroke="none" font-family="Arial" font-size="24px" font-style="normal" font-weight="normal" text-decoration="none" x="200" y="60">UNREGISTERED</text><text fill="#eeeeee" stroke="none" font-family="Arial" font-size="24px" font-style="normal" font-weight="normal" text-decoration="none" x="200" y="90">UNREGISTERED</text><text fill="#eeeeee" stroke="none" font-family="Arial" font-size="24px" font-style="normal" font-weight="normal" text-decoration="none" x="200" y="120">UNREGISTERED</text><text fill="#eeeeee" stroke="none" font-family="Arial" font-size="24px" font-style="normal" font-weight="normal" text-decoration="none" x="200" y="150">UNREGISTERED</text><text fill="#eeeeee" stroke="none" font-family="Arial" font-size="24px" font-style="normal" font-weight="normal" text-decoration="none" x="200" y="180">UNREGISTERED</text><text fill="#eeeeee" stroke="none" font-family="Arial" font-size="24px" font-style="normal" font-weight="normal" text-decoration="none" x="200" y="210">UNREGISTERED</text><text fill="#eeeeee" stroke="none" font-family="Arial" font-size="24px" font-style="normal" font-weight="normal" text-decoration="none" x="200" y="240">UNREGISTERED</text><text fill="#eeeeee" stroke="none" font-family="Arial" font-size="24px" font-style="normal" font-weight="normal" text-decoration="none" x="200" y="270">UNREGISTERED</text><text fill="#eeeeee" stroke="none" font-family="Arial" font-size="24px" font-style="normal" font-weight="normal" text-decoration="none" x="200" y="300">UNREGISTERED</text><text fill="#eeeeee" stroke="none" font-family="Arial" font-size="24px" font-style="normal" font-weight="normal" text-decoration="none" x="200" y="330">UNREGISTERED</text><text fill="#eeeeee" stroke="none" font-family="Arial" font-size="24px" font-style="normal" font-weight="normal" text-decoration="none" x="200" y="360">UNREGISTERED</text><text fill="#eeeeee" stroke="none" font-family="Arial" font-size="24px" font-style="normal" font-weight="normal" text-decoration="none" x="200" y="390">UNREGISTERED</text><text fill="#eeeeee" stroke="none" font-family="Arial" font-size="24px" font-style="normal" font-weight="normal" text-decoration="none" x="200" y="420">UNREGISTERED</text><text fill="#eeeeee" stroke="none" font-family="Arial" font-size="24px" font-style="normal" font-weight="normal" text-decoration="none" x="200" y="450">UNREGISTERED</text><text fill="#eeeeee" stroke="none" font-family="Arial" font-size="24px" font-style="normal" font-weight="normal" text-decoration="none" x="200" y="480">UNREGISTERED</text><text fill="#eeeeee" stroke="none" font-family="Arial" font-size="24px" font-style="normal" font-weight="normal" text-decoration="none" x="200" y="510">UNREGISTERED</text><text fill="#eeeeee" stroke="none" font-family="Arial" font-size="24px" font-style="normal" font-weight="normal" text-decoration="none" x="200" y="540">UNREGISTERED</text><text fill="#eeeeee" stroke="none" font-family="Arial" font-size="24px" font-style="normal" font-weight="normal" text-decoration="none" x="200" y="570">UNREGISTERED</text><text fill="#eeeeee" stroke="none" font-family="Arial" font-size="24px" font-style="normal" font-weight="normal" text-decoration="none" x="200" y="600">UNREGISTERED</text><text fill="#eeeeee" stroke="none" font-family="Arial" font-size="24px" font-style="normal" font-weight="normal" text-decoration="none" x="200" y="630">UNREGISTERED</text><text fill="#eeeeee" stroke="none" font-family="Arial" font-size="24px" font-style="normal" font-weight="normal" text-decoration="none" x="200" y="660">UNREGISTERED</text><text fill="#eeeeee" stroke="none" font-family="Arial" font-size="24px" font-style="normal" font-weight="normal" text-decoration="none" x="200" y="690">UNREGISTERED</text><text fill="#eeeeee" stroke="none" font-family="Arial" font-size="24px" font-style="normal" font-weight="normal" text-decoration="none" x="200" y="720">UNREGISTERED</text><text fill="#eeeeee" stroke="none" font-family="Arial" font-size="24px" font-style="normal" font-weight="normal" text-decoration="none" x="200" y="750">UNREGISTERED</text><text fill="#eeeeee" stroke="none" font-family="Arial" font-size="24px" font-style="normal" font-weight="normal" text-decoration="none" x="200" y="780">UNREGISTERED</text><text fill="#eeeeee" stroke="none" font-family="Arial" font-size="24px" font-style="normal" font-weight="normal" text-decoration="none" x="200" y="810">UNREGISTERED</text><text fill="#eeeeee" stroke="none" font-family="Arial" font-size="24px" font-style="normal" font-weight="normal" text-decoration="none" x="200" y="840">UNREGISTERED</text><text fill="#eeeeee" stroke="none" font-family="Arial" font-size="24px" font-style="normal" font-weight="normal" text-decoration="none" x="400" y="0">UNREGISTERED</text><text fill="#eeeeee" stroke="none" font-family="Arial" font-size="24px" font-style="normal" font-weight="normal" text-decoration="none" x="400" y="30">UNREGISTERED</text><text fill="#eeeeee" stroke="none" font-family="Arial" font-size="24px" font-style="normal" font-weight="normal" text-decoration="none" x="400" y="60">UNREGISTERED</text><text fill="#eeeeee" stroke="none" font-family="Arial" font-size="24px" font-style="normal" font-weight="normal" text-decoration="none" x="400" y="90">UNREGISTERED</text><text fill="#eeeeee" stroke="none" font-family="Arial" font-size="24px" font-style="normal" font-weight="normal" text-decoration="none" x="400" y="120">UNREGISTERED</text><text fill="#eeeeee" stroke="none" font-family="Arial" font-size="24px" font-style="normal" font-weight="normal" text-decoration="none" x="400" y="150">UNREGISTERED</text><text fill="#eeeeee" stroke="none" font-family="Arial" font-size="24px" font-style="normal" font-weight="normal" text-decoration="none" x="400" y="180">UNREGISTERED</text><text fill="#eeeeee" stroke="none" font-family="Arial" font-size="24px" font-style="normal" font-weight="normal" text-decoration="none" x="400" y="210">UNREGISTERED</text><text fill="#eeeeee" stroke="none" font-family="Arial" font-size="24px" font-style="normal" font-weight="normal" text-decoration="none" x="400" y="240">UNREGISTERED</text><text fill="#eeeeee" stroke="none" font-family="Arial" font-size="24px" font-style="normal" font-weight="normal" text-decoration="none" x="400" y="270">UNREGISTERED</text><text fill="#eeeeee" stroke="none" font-family="Arial" font-size="24px" font-style="normal" font-weight="normal" text-decoration="none" x="400" y="300">UNREGISTERED</text><text fill="#eeeeee" stroke="none" font-family="Arial" font-size="24px" font-style="normal" font-weight="normal" text-decoration="none" x="400" y="330">UNREGISTERED</text><text fill="#eeeeee" stroke="none" font-family="Arial" font-size="24px" font-style="normal" font-weight="normal" text-decoration="none" x="400" y="360">UNREGISTERED</text><text fill="#eeeeee" stroke="none" font-family="Arial" font-size="24px" font-style="normal" font-weight="normal" text-decoration="none" x="400" y="390">UNREGISTERED</text><text fill="#eeeeee" stroke="none" font-family="Arial" font-size="24px" font-style="normal" font-weight="normal" text-decoration="none" x="400" y="420">UNREGISTERED</text><text fill="#eeeeee" stroke="none" font-family="Arial" font-size="24px" font-style="normal" font-weight="normal" text-decoration="none" x="400" y="450">UNREGISTERED</text><text fill="#eeeeee" stroke="none" font-family="Arial" font-size="24px" font-style="normal" font-weight="normal" text-decoration="none" x="400" y="480">UNREGISTERED</text><text fill="#eeeeee" stroke="none" font-family="Arial" font-size="24px" font-style="normal" font-weight="normal" text-decoration="none" x="400" y="510">UNREGISTERED</text><text fill="#eeeeee" stroke="none" font-family="Arial" font-size="24px" font-style="normal" font-weight="normal" text-decoration="none" x="400" y="540">UNREGISTERED</text><text fill="#eeeeee" stroke="none" font-family="Arial" font-size="24px" font-style="normal" font-weight="normal" text-decoration="none" x="400" y="570">UNREGISTERED</text><text fill="#eeeeee" stroke="none" font-family="Arial" font-size="24px" font-style="normal" font-weight="normal" text-decoration="none" x="400" y="600">UNREGISTERED</text><text fill="#eeeeee" stroke="none" font-family="Arial" font-size="24px" font-style="normal" font-weight="normal" text-decoration="none" x="400" y="630">UNREGISTERED</text><text fill="#eeeeee" stroke="none" font-family="Arial" font-size="24px" font-style="normal" font-weight="normal" text-decoration="none" x="400" y="660">UNREGISTERED</text><text fill="#eeeeee" stroke="none" font-family="Arial" font-size="24px" font-style="normal" font-weight="normal" text-decoration="none" x="400" y="690">UNREGISTERED</text><text fill="#eeeeee" stroke="none" font-family="Arial" font-size="24px" font-style="normal" font-weight="normal" text-decoration="none" x="400" y="720">UNREGISTERED</text><text fill="#eeeeee" stroke="none" font-family="Arial" font-size="24px" font-style="normal" font-weight="normal" text-decoration="none" x="400" y="750">UNREGISTERED</text><text fill="#eeeeee" stroke="none" font-family="Arial" font-size="24px" font-style="normal" font-weight="normal" text-decoration="none" x="400" y="780">UNREGISTERED</text><text fill="#eeeeee" stroke="none" font-family="Arial" font-size="24px" font-style="normal" font-weight="normal" text-decoration="none" x="400" y="810">UNREGISTERED</text><text fill="#eeeeee" stroke="none" font-family="Arial" font-size="24px" font-style="normal" font-weight="normal" text-decoration="none" x="400" y="840">UNREGISTERED</text><g transform="translate(-102,-46) scale(1,1)"><path fill="#C0C0C0" stroke="none" d="M 255 72.5 C 255 67.2532944 260.3725824 63 267 63 C 273.6274176 63 279 67.2532944 279 72.5 C 279 77.7467056 273.6274176 82 267 82 C 260.3725824 82 255 77.7467056 255 72.5 Z" opacity="0.2"/></g><g transform="translate(-102,-46) scale(1,1)"><path fill="#000000" stroke="none" d="M 248 65.5 C 248 60.2532944 253.3725824 56 260 56 C 266.6274176 56 272 60.2532944 272 65.5 C 272 70.7467056 266.6274176 75 260 75 C 253.3725824 75 248 70.7467056 248 65.5 Z"/></g><g transform="translate(-102,-46) scale(1,1)"><path fill="#C0C0C0" stroke="none" d="M 137 119 L 401.15185546875 119 Q 411.15185546875 119 411.15185546875 129 L 411.15185546875 149 Q 411.15185546875 159 401.15185546875 159 L 137 159 Q 127 159 127 149 L 127 129 Q 127 119 137 119 Z" opacity="0.2"/></g><g transform="translate(-102,-46) scale(1,1)"><path fill="#ffffff" stroke="none" d="M 130 112 L 394.15185546875 112 Q 404.15185546875 112 404.15185546875 122 L 404.15185546875 142 Q 404.15185546875 152 394.15185546875 152 L 130 152 Q 120 152 120 142 L 120 122 Q 120 112 130 112 Z"/></g><g transform="translate(-102,-46) scale(1,1)"><path fill="none" stroke="#000000" d="M 130 112 L 394.15185546875 112 Q 404.15185546875 112 404.15185546875 122 L 404.15185546875 142 Q 404.15185546875 152 394.15185546875 152 L 130 152 Q 120 152 120 142 L 120 122 Q 120 112 130 112 Z" stroke-miterlimit="10"/></g><g transform="translate(-102,-46) scale(1,1)"><g><path fill="none" stroke="none"/><text fill="#000000" stroke="none" font-family="Arial" font-size="13px" font-style="normal" font-weight="bold" text-decoration="none" x="124.5" y="130">Admin Log in  through Log ID and Password</text></g></g><g transform="translate(-102,-46) scale(1,1)"><path fill="none" stroke="#000000" d="M 260 76 L 261 111" stroke-miterlimit="10"/></g><g transform="translate(-102,-46) scale(1,1)"><path fill="none" stroke="#000000" d="M 256.5019556671291 100.96169351038095 L 261 111 L 264.9175569405878 100.7212477597107" stroke-miterlimit="10"/></g><g transform="translate(-102,-46) scale(1,1)"><path fill="#C0C0C0" stroke="none" d="M 207 243.5 L 267.5 199 L 327 243.5 L 267.5 287 L 207 243.5" opacity="0.2"/></g><g transform="translate(-102,-46) scale(1,1)"><path fill="#ffffff" stroke="none" d="M 200 236 L 260 192 L 320 236 L 260 280 L 200 236"/></g><g transform="translate(-102,-46) scale(1,1)"><path fill="none" stroke="#000000" d="M 200 236 L 260 192 L 320 236 L 260 280 L 200 236 L 200 236" stroke-miterlimit="10"/></g><g transform="translate(-102,-46) scale(1,1)"><g><path fill="none" stroke="none"/><text fill="#000000" stroke="none" font-family="Arial" font-size="13px" font-style="normal" font-weight="normal" text-decoration="none" x="229" y="223">Check Log</text><text fill="#000000" stroke="none" font-family="Arial" font-size="13px" font-style="normal" font-weight="normal" text-decoration="none" x="229" y="236">in ID and</text><text fill="#000000" stroke="none" font-family="Arial" font-size="13px" font-style="normal" font-weight="normal" text-decoration="none" x="229" y="249">password</text></g></g><g transform="translate(-102,-46) scale(1,1)"><path fill="none" stroke="#000000" d="M 262 153 L 261 191" stroke-miterlimit="10"/></g><g transform="translate(-102,-46) scale(1,1)"><path fill="none" stroke="#000000" d="M 257.0592853332588 180.73010380211508 L 261 191 L 265.4754071800324 180.95158069281965" stroke-miterlimit="10"/></g><g transform="translate(-102,-46) scale(1,1)"><path fill="#C0C0C0" stroke="none" d="M 393 223 L 573.4072265625 223 Q 583.4072265625 223 583.4072265625 233 L 583.4072265625 253 Q 583.4072265625 263 573.4072265625 263 L 393 263 Q 383 263 383 253 L 383 233 Q 383 223 393 223 Z" opacity="0.2"/></g><g transform="translate(-102,-46) scale(1,1)"><path fill="#ffffff" stroke="none" d="M 386 216 L 566.4072265625 216 Q 576.4072265625 216 576.4072265625 226 L 576.4072265625 246 Q 576.4072265625 256 566.4072265625 256 L 386 256 Q 376 256 376 246 L 376 226 Q 376 216 386 216 Z"/></g><g transform="translate(-102,-46) scale(1,1)"><path fill="none" stroke="#000000" d="M 386 216 L 566.4072265625 216 Q 576.4072265625 216 576.4072265625 226 L 576.4072265625 246 Q 576.4072265625 256 566.4072265625 256 L 386 256 Q 376 256 376 246 L 376 226 Q 376 216 386 216 Z" stroke-miterlimit="10"/></g><g transform="translate(-102,-46) scale(1,1)"><g><path fill="none" stroke="none"/><text fill="#000000" stroke="none" font-family="Arial" font-size="13px" font-style="normal" font-weight="bold" text-decoration="none" x="380.5" y="234">Invalid Log in ID and password</text></g></g><g transform="translate(-102,-46) scale(1,1)"><path fill="none" stroke="#000000" d="M 477 215 L 480 128 L 405 129" stroke-miterlimit="10"/></g><g transform="translate(-102,-46) scale(1,1)"><path fill="none" stroke="#000000" d="M 415.105649714156 124.6553660850679 L 405 129 L 415.2178935441972 133.07365333815406" stroke-miterlimit="10"/></g><g transform="translate(-102,-46) scale(1,1)"><path fill="none" stroke="#000000" d="M 321 236 L 375 236" stroke-miterlimit="10"/></g><g transform="translate(-102,-46) scale(1,1)"><path fill="none" stroke="#000000" d="M 364.83732514237585 240.209517756016 L 375 236 L 364.83732514237585 231.790482243984" stroke-miterlimit="10"/></g><g transform="translate(-102,-46) scale(1,1)"><path fill="#C0C0C0" stroke="none" d="M 209 343 L 325 343 Q 335 343 335 353 L 335 373 Q 335 383 325 383 L 209 383 Q 199 383 199 373 L 199 353 Q 199 343 209 343 Z" opacity="0.2"/></g><g transform="translate(-102,-46) scale(1,1)"><path fill="#ffffff" stroke="none" d="M 202 336 L 318 336 Q 328 336 328 346 L 328 366 Q 328 376 318 376 L 202 376 Q 192 376 192 366 L 192 346 Q 192 336 202 336 Z"/></g><g transform="translate(-102,-46) scale(1,1)"><path fill="none" stroke="#000000" d="M 202 336 L 318 336 Q 328 336 328 346 L 328 366 Q 328 376 318 376 L 202 376 Q 192 376 192 366 L 192 346 Q 192 336 202 336 Z" stroke-miterlimit="10"/></g><g transform="translate(-102,-46) scale(1,1)"><g><path fill="none" stroke="none"/><text fill="#000000" stroke="none" font-family="Arial" font-size="13px" font-style="normal" font-weight="bold" text-decoration="none" x="198.957763671875" y="354">Successfully Log In</text></g></g><g transform="translate(-102,-46) scale(1,1)"><path fill="none" stroke="#000000" d="M 260 281 L 260 335" stroke-miterlimit="10"/></g><g transform="translate(-102,-46) scale(1,1)"><path fill="none" stroke="#000000" d="M 255.790482243984 324.83732514237585 L 260 335 L 264.209517756016 324.83732514237585" stroke-miterlimit="10"/></g><g transform="translate(-102,-46) scale(1,1)"><path fill="#C0C0C0" stroke="none" d="M 234 423 L 297 423 Q 300 423 300 426 L 300 425 Q 300 428 297 428 L 234 428 Q 231 428 231 425 L 231 426 Q 231 423 234 423 Z" opacity="0.2"/></g><g transform="translate(-102,-46) scale(1,1)"><path fill="#000000" stroke="none" d="M 227 416 L 290 416 Q 293 416 293 419 L 293 419 Q 293 422 290 422 L 227 422 Q 224 422 224 419 L 224 419 Q 224 416 227 416 Z"/></g><g transform="translate(-102,-46) scale(1,1)"><path fill="none" stroke="#000000" d="M 259 377 L 258 415" stroke-miterlimit="10"/></g><g transform="translate(-102,-46) scale(1,1)"><path fill="none" stroke="#000000" d="M 254.0592853332588 404.7301038021151 L 258 415 L 262.4754071800324 404.9515806928197" stroke-miterlimit="10"/></g><g transform="translate(-102,-46) scale(1,1)"><path fill="#C0C0C0" stroke="none" d="M 145 495 L 196 495 Q 206 495 206 505 L 206 525 Q 206 535 196 535 L 145 535 Q 135 535 135 525 L 135 505 Q 135 495 145 495 Z" opacity="0.2"/></g><g transform="translate(-102,-46) scale(1,1)"><path fill="#ffffff" stroke="none" d="M 138 488 L 189 488 Q 199 488 199 498 L 199 518 Q 199 528 189 528 L 138 528 Q 128 528 128 518 L 128 498 Q 128 488 138 488 Z"/></g><g transform="translate(-102,-46) scale(1,1)"><path fill="none" stroke="#000000" d="M 138 488 L 189 488 Q 199 488 199 498 L 199 518 Q 199 528 189 528 L 138 528 Q 128 528 128 518 L 128 498 Q 128 488 138 488 Z" stroke-miterlimit="10"/></g><g transform="translate(-102,-46) scale(1,1)"><g><path fill="none" stroke="none"/><text fill="#000000" stroke="none" font-family="Arial" font-size="13px" font-style="normal" font-weight="bold" text-decoration="none" x="136.055908203125" y="506">Pending </text></g></g><g transform="translate(-102,-46) scale(1,1)"><path fill="#C0C0C0" stroke="none" d="M 249 495 L 308 495 Q 318 495 318 505 L 318 525 Q 318 535 308 535 L 249 535 Q 239 535 239 525 L 239 505 Q 239 495 249 495 Z" opacity="0.2"/></g><g transform="translate(-102,-46) scale(1,1)"><path fill="#ffffff" stroke="none" d="M 242 488 L 301 488 Q 311 488 311 498 L 311 518 Q 311 528 301 528 L 242 528 Q 232 528 232 518 L 232 498 Q 232 488 242 488 Z"/></g><g transform="translate(-102,-46) scale(1,1)"><path fill="none" stroke="#000000" d="M 242 488 L 301 488 Q 311 488 311 498 L 311 518 Q 311 528 301 528 L 242 528 Q 232 528 232 518 L 232 498 Q 232 488 242 488 Z" stroke-miterlimit="10"/></g><g transform="translate(-102,-46) scale(1,1)"><g><path fill="none" stroke="none"/><text fill="#000000" stroke="none" font-family="Arial" font-size="13px" font-style="normal" font-weight="bold" text-decoration="none" x="249.819580078125" y="506">Served</text></g></g><g transform="translate(-102,-46) scale(1,1)"><path fill="#C0C0C0" stroke="none" d="M 361 495 L 403.447265625 495 Q 413.447265625 495 413.447265625 505 L 413.447265625 525 Q 413.447265625 535 403.447265625 535 L 361 535 Q 351 535 351 525 L 351 505 Q 351 495 361 495 Z" opacity="0.2"/></g><g transform="translate(-102,-46) scale(1,1)"><path fill="#ffffff" stroke="none" d="M 354 488 L 396.447265625 488 Q 406.447265625 488 406.447265625 498 L 406.447265625 518 Q 406.447265625 528 396.447265625 528 L 354 528 Q 344 528 344 518 L 344 498 Q 344 488 354 488 Z"/></g><g transform="translate(-102,-46) scale(1,1)"><path fill="none" stroke="#000000" d="M 354 488 L 396.447265625 488 Q 406.447265625 488 406.447265625 498 L 406.447265625 518 Q 406.447265625 528 396.447265625 528 L 354 528 Q 344 528 344 518 L 344 498 Q 344 488 354 488 Z" stroke-miterlimit="10"/></g><g transform="translate(-102,-46) scale(1,1)"><g><path fill="none" stroke="none"/><text fill="#000000" stroke="none" font-family="Arial" font-size="13px" font-style="normal" font-weight="bold" text-decoration="none" x="348.5" y="506">Finished</text></g></g><g transform="translate(-102,-46) scale(1,1)"><path fill="none" stroke="#000000" d="M 254 422 L 185 487" stroke-miterlimit="10"/></g><g transform="translate(-102,-46) scale(1,1)"><path fill="none" stroke="#000000" d="M 189.5108718874476 476.96745123036845 L 185 487 L 195.28375136826915 483.0955848330868" stroke-miterlimit="10"/></g><g transform="translate(-102,-46) scale(1,1)"><path fill="none" stroke="#000000" d="M 263 422 L 348 487" stroke-miterlimit="10"/></g><g transform="translate(-102,-46) scale(1,1)"><path fill="none" stroke="#000000" d="M 337.37012760913274 484.1705454670771 L 348 487 L 342.48427163655896 477.4828186619813" stroke-miterlimit="10"/></g><g transform="translate(-102,-46) scale(1,1)"><path fill="none" stroke="#000000" d="M 259 422 L 268 487" stroke-miterlimit="10"/></g><g transform="translate(-102,-46) scale(1,1)"><path fill="none" stroke="#000000" d="M 262.4364208086141 477.5107120087344 L 268 487 L 270.77589531335866 476.3560155388467" stroke-miterlimit="10"/></g><g transform="translate(-102,-46) scale(1,1)"><path fill="#C0C0C0" stroke="none" d="M 129 607 L 204 607 Q 214 607 214 617 L 214 637 Q 214 647 204 647 L 129 647 Q 119 647 119 637 L 119 617 Q 119 607 129 607 Z" opacity="0.2"/></g><g transform="translate(-102,-46) scale(1,1)"><path fill="#ffffff" stroke="none" d="M 122 600 L 197 600 Q 207 600 207 610 L 207 630 Q 207 640 197 640 L 122 640 Q 112 640 112 630 L 112 610 Q 112 600 122 600 Z"/></g><g transform="translate(-102,-46) scale(1,1)"><path fill="none" stroke="#000000" d="M 122 600 L 197 600 Q 207 600 207 610 L 207 630 Q 207 640 197 640 L 122 640 Q 112 640 112 630 L 112 610 Q 112 600 122 600 Z" stroke-miterlimit="10"/></g><g transform="translate(-102,-46) scale(1,1)"><g><path fill="none" stroke="none"/><text fill="#000000" stroke="none" font-family="Arial" font-size="13px" font-style="normal" font-weight="bold" text-decoration="none" x="139.990478515625" y="618">Check</text></g></g><g transform="translate(-102,-46) scale(1,1)"><path fill="#C0C0C0" stroke="none" d="M 241 607 L 316 607 Q 326 607 326 617 L 326 637 Q 326 647 316 647 L 241 647 Q 231 647 231 637 L 231 617 Q 231 607 241 607 Z" opacity="0.2"/></g><g transform="translate(-102,-46) scale(1,1)"><path fill="#ffffff" stroke="none" d="M 234 600 L 309 600 Q 319 600 319 610 L 319 630 Q 319 640 309 640 L 234 640 Q 224 640 224 630 L 224 610 Q 224 600 234 600 Z"/></g><g transform="translate(-102,-46) scale(1,1)"><path fill="none" stroke="#000000" d="M 234 600 L 309 600 Q 319 600 319 610 L 319 630 Q 319 640 309 640 L 234 640 Q 224 640 224 630 L 224 610 Q 224 600 234 600 Z" stroke-miterlimit="10"/></g><g transform="translate(-102,-46) scale(1,1)"><g><path fill="none" stroke="none"/><text fill="#000000" stroke="none" font-family="Arial" font-size="13px" font-style="normal" font-weight="bold" text-decoration="none" x="251.990478515625" y="618">Check</text></g></g><g transform="translate(-102,-46) scale(1,1)"><path fill="#C0C0C0" stroke="none" d="M 353 607 L 428 607 Q 438 607 438 617 L 438 637 Q 438 647 428 647 L 353 647 Q 343 647 343 637 L 343 617 Q 343 607 353 607 Z" opacity="0.2"/></g><g transform="translate(-102,-46) scale(1,1)"><path fill="#ffffff" stroke="none" d="M 346 600 L 421 600 Q 431 600 431 610 L 431 630 Q 431 640 421 640 L 346 640 Q 336 640 336 630 L 336 610 Q 336 600 346 600 Z"/></g><g transform="translate(-102,-46) scale(1,1)"><path fill="none" stroke="#000000" d="M 346 600 L 421 600 Q 431 600 431 610 L 431 630 Q 431 640 421 640 L 346 640 Q 336 640 336 630 L 336 610 Q 336 600 346 600 Z" stroke-miterlimit="10"/></g><g transform="translate(-102,-46) scale(1,1)"><g><path fill="none" stroke="none"/><text fill="#000000" stroke="none" font-family="Arial" font-size="13px" font-style="normal" font-weight="bold" text-decoration="none" x="363.990478515625" y="618">Check</text></g></g><g transform="translate(-102,-46) scale(1,1)"><path fill="none" stroke="#000000" d="M 162 529 L 160 599" stroke-miterlimit="10"/></g><g transform="translate(-102,-46) scale(1,1)"><path fill="none" stroke="#000000" d="M 156.08244305941218 588.7212477597106 L 160 599 L 164.4980443328709 588.961693510381" stroke-miterlimit="10"/></g><g transform="translate(-102,-46) scale(1,1)"><path fill="none" stroke="#000000" d="M 271 529 L 271 599" stroke-miterlimit="10"/></g><g transform="translate(-102,-46) scale(1,1)"><path fill="none" stroke="#000000" d="M 266.790482243984 588.8373251423759 L 271 599 L 275.209517756016 588.8373251423759" stroke-miterlimit="10"/></g><g transform="translate(-102,-46) scale(1,1)"><path fill="none" stroke="#000000" d="M 377 529 L 382 599" stroke-miterlimit="10"/></g><g transform="translate(-102,-46) scale(1,1)"><path fill="none" stroke="#000000" d="M 377.0771192885779 589.1630672716996 L 382 599 L 385.4747595042381 588.5632358277238" stroke-miterlimit="10"/></g><g transform="translate(-102,-46) scale(1,1)"><path fill="#C0C0C0" stroke="none" d="M 242 735 L 305 735 Q 308 735 308 738 L 308 737 Q 308 740 305 740 L 242 740 Q 239 740 239 737 L 239 738 Q 239 735 242 735 Z" opacity="0.2"/></g><g transform="translate(-102,-46) scale(1,1)"><path fill="#000000" stroke="none" d="M 235 728 L 298 728 Q 301 728 301 731 L 301 731 Q 301 734 298 734 L 235 734 Q 232 734 232 731 L 232 731 Q 232 728 235 728 Z"/></g><g transform="translate(-102,-46) scale(1,1)"><path fill="none" stroke="#000000" d="M 179 641 L 263 727" stroke-miterlimit="10"/></g><g transform="translate(-102,-46) scale(1,1)"><path fill="none" stroke="#000000" d="M 252.887548680089 722.6712209224274 L 263 727 L 258.9103261372821 716.788508057262" stroke-miterlimit="10"/></g><g transform="translate(-102,-46) scale(1,1)"><path fill="none" stroke="#000000" d="M 361 641 L 269 727" stroke-miterlimit="10"/></g><g transform="translate(-102,-46) scale(1,1)"><path fill="none" stroke="#000000" d="M 273.54949594908453 716.9849070593797 L 269 727 L 279.29871956910455 723.1352393040522" stroke-miterlimit="10"/></g><g transform="translate(-102,-46) scale(1,1)"><path fill="none" stroke="#000000" d="M 270 641 L 266 727" stroke-miterlimit="10"/></g><g transform="translate(-102,-46) scale(1,1)"><path fill="none" stroke="#000000" d="M 262.26720025586275 716.6527198708951 L 266 727 L 270.677143934236 717.0438800419822" stroke-miterlimit="10"/></g><g transform="translate(-102,-46) scale(1,1)"><path fill="#C0C0C0" stroke="none" d="M 263 819.5 C 263 812.59644 268.59644 807 275.5 807 C 282.40356 807 288 812.59644 288 819.5 C 288 826.40356 282.40356 832 275.5 832 C 268.59644 832 263 826.40356 263 819.5 Z" opacity="0.2"/></g><g transform="translate(-102,-46) scale(1,1)"><path fill="none" stroke="#000000" d="M 256 812.5 C 256 805.59644 261.59644 800 268.5 800 C 275.40356 800 281 805.59644 281 812.5 C 281 819.40356 275.40356 825 268.5 825 C 261.59644 825 256 819.40356 256 812.5 Z" stroke-miterlimit="10"/></g><g transform="translate(-102,-46) scale(1,1)"><path fill="#000000" stroke="none" d="M 261 812.5 C 261 808.357864 264.357864 805 268.5 805 C 272.642136 805 276 808.357864 276 812.5 C 276 816.642136 272.642136 820 268.5 820 C 264.357864 820 261 816.642136 261 812.5 Z"/></g><g transform="translate(-102,-46) scale(1,1)"><path fill="none" stroke="#000000" d="M 266 733 L 266 768 L 264 768 L 264 800" stroke-miterlimit="10"/></g><g transform="translate(-102,-46) scale(1,1)"><path fill="none" stroke="#000000" d="M 259.790482243984 789.8373251423759 L 264 800 L 268.209517756016 789.8373251423759" stroke-miterlimit="10"/></g><g transform="translate(-102,-46) scale(1,1)"><g><path fill="none" stroke="none"/><text fill="#000000" stroke="none" font-family="Arial" font-size="13px" font-style="normal" font-weight="normal" text-decoration="none" x="277" y="895">Admin End Activity Diagram</text></g></g></g></svg>